<svg width="340" height="340" viewBox="0 0 340 340" fill="none" xmlns="http://www.w3.org/2000/svg">
<g clip-path="url(#clip0_2_13)" filter="url(#filter0_d_2_13)">
<g filter="url(#filter1_ii_2_13)">
<rect x="4" width="332" height="332" rx="88" fill="#494947"/>
</g>
<g style="mix-blend-mode:lighten">
<rect x="4" width="332" height="332" rx="88" fill="url(#paint0_linear_2_13)" fill-opacity="0.2"/>
<rect x="4.25" y="0.25" width="331.5" height="331.5" rx="87.75" stroke="white" stroke-opacity="0.1" stroke-width="0.5"/>
</g>
<g style="mix-blend-mode:darken" filter="url(#filter2_if_2_13)">
<rect x="17" y="13" width="306" height="306" rx="80" fill="url(#paint1_linear_2_13)"/>
</g>
<circle cx="170" cy="166" r="74" fill="#333333"/>
<g filter="url(#filter3_f_2_13)">
<path d="M115.001 166.296C115.167 196.67 139.922 221.159 170.302 220.999C200.682 220.839 225.165 196.078 224.999 165.698C224.833 135.324 200.078 110.835 169.698 111.001C139.324 111.161 114.835 135.922 115.001 166.296ZM205.65 165.805C205.756 185.498 189.882 201.543 170.189 201.65C150.497 201.756 134.451 185.882 134.344 166.189C134.238 146.497 150.112 130.451 169.805 130.344C189.497 130.238 205.543 146.112 205.65 165.805Z" fill="url(#paint2_linear_2_13)" fill-opacity="0.7"/>
</g>
<g filter="url(#filter4_f_2_13)">
<path d="M333 114L264 90V43.5H329L333 114Z" fill="url(#paint3_linear_2_13)" fill-opacity="0.2"/>
</g>
<g filter="url(#filter5_f_2_13)">
<path d="M333.5 245.5L172 261L204 237.5L244 191.5L252 133L212 83L333.5 149V245.5Z" fill="url(#paint4_linear_2_13)" fill-opacity="0.1"/>
</g>
<path d="M269.5 90C282.479 90 293 79.4787 293 66.5C293 53.5213 282.479 43 269.5 43C256.521 43 246 53.5213 246 66.5C246 79.4787 256.521 90 269.5 90Z" fill="url(#paint5_linear_2_13)"/>
<g style="mix-blend-mode:luminosity" filter="url(#filter6_f_2_13)">
<path d="M285.491 69.5C285.491 72.5376 284.371 75 282.991 75C281.61 75 282.076 72.5376 282.076 69.5C282.076 66.4624 281.61 64 282.991 64C284.371 64 285.491 66.4624 285.491 69.5Z" fill="white"/>
</g>
<g style="mix-blend-mode:luminosity" opacity="0.5" filter="url(#filter7_f_2_13)">
<path d="M254 64.5C254 67.5376 255.283 70 256.865 70C258.447 70 257.913 67.5376 257.913 64.5C257.913 61.4624 258.447 59 256.865 59C255.283 59 254 61.4624 254 64.5Z" fill="white"/>
</g>
<g filter="url(#filter8_dii_2_13)">
<path d="M169.483 70.0015C116.466 70.2908 73.7223 113.5 74.0014 166.527C74.2804 219.554 117.5 262.288 170.527 261.999C223.544 261.709 266.288 218.5 265.999 165.473C265.719 112.456 222.5 69.7121 169.483 70.0015ZM170.341 228.225C135.968 228.411 107.961 200.704 107.775 166.331C107.589 131.958 135.296 103.951 169.669 103.765C204.042 103.579 232.049 131.286 232.235 165.659C232.421 200.032 204.714 228.039 170.341 228.225Z" fill="url(#paint6_linear_2_13)"/>
<path d="M74.5014 166.524C74.2238 113.773 116.745 70.7893 169.486 70.5015C222.227 70.2136 265.221 112.735 265.499 165.476C265.786 218.227 223.265 261.211 170.524 261.499C117.773 261.786 74.7789 219.275 74.5014 166.524ZM107.275 166.333C107.463 200.983 135.694 228.912 170.344 228.725C204.993 228.537 232.923 200.305 232.735 165.656C232.548 131.007 204.316 103.077 169.667 103.265C135.017 103.452 107.088 131.684 107.275 166.333Z" stroke="white" stroke-opacity="0.1"/>
</g>
<g filter="url(#filter9_f_2_13)">
<path d="M169.483 70.0015C116.466 70.2908 73.7223 113.5 74.0014 166.527C74.2804 219.554 117.5 262.288 170.527 261.999C223.544 261.709 266.288 218.5 265.999 165.473C265.719 112.456 222.5 69.7121 169.483 70.0015ZM170.341 228.225C135.968 228.411 107.961 200.704 107.775 166.331C107.589 131.958 135.296 103.951 169.669 103.765C204.042 103.579 232.049 131.286 232.235 165.659C232.421 200.032 204.714 228.039 170.341 228.225Z" fill="url(#paint7_linear_2_13)"/>
</g>
<g filter="url(#filter10_f_2_13)">
<circle cx="170" cy="166" r="70" stroke="url(#paint8_linear_2_13)" stroke-opacity="0.5" stroke-width="4"/>
</g>
<g filter="url(#filter11_f_2_13)">
<circle cx="170" cy="166" r="86" transform="rotate(-30 170 166)" stroke="url(#paint9_linear_2_13)" stroke-opacity="0.6" stroke-width="4"/>
</g>
</g>
<defs>
<filter id="filter0_d_2_13" x="0" y="0" width="340" height="340" filterUnits="userSpaceOnUse" color-interpolation-filters="sRGB">
<feFlood flood-opacity="0" result="BackgroundImageFix"/>
<feColorMatrix in="SourceAlpha" type="matrix" values="0 0 0 0 0 0 0 0 0 0 0 0 0 0 0 0 0 0 127 0" result="hardAlpha"/>
<feOffset dy="4"/>
<feGaussianBlur stdDeviation="2"/>
<feComposite in2="hardAlpha" operator="out"/>
<feColorMatrix type="matrix" values="0 0 0 0 0 0 0 0 0 0 0 0 0 0 0 0 0 0 0.25 0"/>
<feBlend mode="normal" in2="BackgroundImageFix" result="effect1_dropShadow_2_13"/>
<feBlend mode="normal" in="SourceGraphic" in2="effect1_dropShadow_2_13" result="shape"/>
</filter>
<filter id="filter1_ii_2_13" x="4" y="0" width="332" height="332" filterUnits="userSpaceOnUse" color-interpolation-filters="sRGB">
<feFlood flood-opacity="0" result="BackgroundImageFix"/>
<feBlend mode="normal" in="SourceGraphic" in2="BackgroundImageFix" result="shape"/>
<feColorMatrix in="SourceAlpha" type="matrix" values="0 0 0 0 0 0 0 0 0 0 0 0 0 0 0 0 0 0 127 0" result="hardAlpha"/>
<feOffset/>
<feGaussianBlur stdDeviation="2"/>
<feComposite in2="hardAlpha" operator="arithmetic" k2="-1" k3="1"/>
<feColorMatrix type="matrix" values="0 0 0 0 1 0 0 0 0 1 0 0 0 0 1 0 0 0 0.1 0"/>
<feBlend mode="normal" in2="shape" result="effect1_innerShadow_2_13"/>
<feColorMatrix in="SourceAlpha" type="matrix" values="0 0 0 0 0 0 0 0 0 0 0 0 0 0 0 0 0 0 127 0" result="hardAlpha"/>
<feOffset/>
<feGaussianBlur stdDeviation="2"/>
<feComposite in2="hardAlpha" operator="arithmetic" k2="-1" k3="1"/>
<feColorMatrix type="matrix" values="0 0 0 0 1 0 0 0 0 1 0 0 0 0 1 0 0 0 0.1 0"/>
<feBlend mode="normal" in2="effect1_innerShadow_2_13" result="effect2_innerShadow_2_13"/>
</filter>
<filter id="filter2_if_2_13" x="-3" y="-7" width="346" height="346" filterUnits="userSpaceOnUse" color-interpolation-filters="sRGB">
<feFlood flood-opacity="0" result="BackgroundImageFix"/>
<feBlend mode="normal" in="SourceGraphic" in2="BackgroundImageFix" result="shape"/>
<feColorMatrix in="SourceAlpha" type="matrix" values="0 0 0 0 0 0 0 0 0 0 0 0 0 0 0 0 0 0 127 0" result="hardAlpha"/>
<feMorphology radius="8" operator="erode" in="SourceAlpha" result="effect1_innerShadow_2_13"/>
<feOffset/>
<feGaussianBlur stdDeviation="4"/>
<feComposite in2="hardAlpha" operator="arithmetic" k2="-1" k3="1"/>
<feColorMatrix type="matrix" values="0 0 0 0 0 0 0 0 0 0 0 0 0 0 0 0 0 0 0.2 0"/>
<feBlend mode="normal" in2="shape" result="effect1_innerShadow_2_13"/>
<feGaussianBlur stdDeviation="10" result="effect2_foregroundBlur_2_13"/>
</filter>
<filter id="filter3_f_2_13" x="55" y="51" width="230" height="230" filterUnits="userSpaceOnUse" color-interpolation-filters="sRGB">
<feFlood flood-opacity="0" result="BackgroundImageFix"/>
<feBlend mode="normal" in="SourceGraphic" in2="BackgroundImageFix" result="shape"/>
<feGaussianBlur stdDeviation="30" result="effect1_foregroundBlur_2_13"/>
</filter>
<filter id="filter4_f_2_13" x="254" y="33.5" width="89" height="90.5" filterUnits="userSpaceOnUse" color-interpolation-filters="sRGB">
<feFlood flood-opacity="0" result="BackgroundImageFix"/>
<feBlend mode="normal" in="SourceGraphic" in2="BackgroundImageFix" result="shape"/>
<feGaussianBlur stdDeviation="5" result="effect1_foregroundBlur_2_13"/>
</filter>
<filter id="filter5_f_2_13" x="162" y="73" width="181.5" height="198" filterUnits="userSpaceOnUse" color-interpolation-filters="sRGB">
<feFlood flood-opacity="0" result="BackgroundImageFix"/>
<feBlend mode="normal" in="SourceGraphic" in2="BackgroundImageFix" result="shape"/>
<feGaussianBlur stdDeviation="5" result="effect1_foregroundBlur_2_13"/>
</filter>
<filter id="filter6_f_2_13" x="275" y="57" width="17.4907" height="25" filterUnits="userSpaceOnUse" color-interpolation-filters="sRGB">
<feFlood flood-opacity="0" result="BackgroundImageFix"/>
<feBlend mode="normal" in="SourceGraphic" in2="BackgroundImageFix" result="shape"/>
<feGaussianBlur stdDeviation="3.5" result="effect1_foregroundBlur_2_13"/>
</filter>
<filter id="filter7_f_2_13" x="247" y="52" width="18" height="25" filterUnits="userSpaceOnUse" color-interpolation-filters="sRGB">
<feFlood flood-opacity="0" result="BackgroundImageFix"/>
<feBlend mode="normal" in="SourceGraphic" in2="BackgroundImageFix" result="shape"/>
<feGaussianBlur stdDeviation="3.5" result="effect1_foregroundBlur_2_13"/>
</filter>
<filter id="filter8_dii_2_13" x="9" y="-12" width="352" height="352" filterUnits="userSpaceOnUse" color-interpolation-filters="sRGB">
<feFlood flood-opacity="0" result="BackgroundImageFix"/>
<feColorMatrix in="SourceAlpha" type="matrix" values="0 0 0 0 0 0 0 0 0 0 0 0 0 0 0 0 0 0 127 0" result="hardAlpha"/>
<feOffset dx="15" dy="-2"/>
<feGaussianBlur stdDeviation="40"/>
<feColorMatrix type="matrix" values="0 0 0 0 0 0 0 0 0 0 0 0 0 0 0 0 0 0 0.57 0"/>
<feBlend mode="normal" in2="BackgroundImageFix" result="effect1_dropShadow_2_13"/>
<feBlend mode="normal" in="SourceGraphic" in2="effect1_dropShadow_2_13" result="shape"/>
<feColorMatrix in="SourceAlpha" type="matrix" values="0 0 0 0 0 0 0 0 0 0 0 0 0 0 0 0 0 0 127 0" result="hardAlpha"/>
<feOffset/>
<feGaussianBlur stdDeviation="1"/>
<feComposite in2="hardAlpha" operator="arithmetic" k2="-1" k3="1"/>
<feColorMatrix type="matrix" values="0 0 0 0 1 0 0 0 0 1 0 0 0 0 1 0 0 0 0.1 0"/>
<feBlend mode="normal" in2="shape" result="effect2_innerShadow_2_13"/>
<feColorMatrix in="SourceAlpha" type="matrix" values="0 0 0 0 0 0 0 0 0 0 0 0 0 0 0 0 0 0 127 0" result="hardAlpha"/>
<feOffset dy="4"/>
<feGaussianBlur stdDeviation="4"/>
<feComposite in2="hardAlpha" operator="arithmetic" k2="-1" k3="1"/>
<feColorMatrix type="matrix" values="0 0 0 0 0 0 0 0 0 0 0 0 0 0 0 0 0 0 0.25 0"/>
<feBlend mode="normal" in2="effect2_innerShadow_2_13" result="effect3_innerShadow_2_13"/>
</filter>
<filter id="filter9_f_2_13" x="72" y="68" width="196" height="196" filterUnits="userSpaceOnUse" color-interpolation-filters="sRGB">
<feFlood flood-opacity="0" result="BackgroundImageFix"/>
<feBlend mode="normal" in="SourceGraphic" in2="BackgroundImageFix" result="shape"/>
<feGaussianBlur stdDeviation="1" result="effect1_foregroundBlur_2_13"/>
</filter>
<filter id="filter10_f_2_13" x="94" y="90" width="152" height="152" filterUnits="userSpaceOnUse" color-interpolation-filters="sRGB">
<feFlood flood-opacity="0" result="BackgroundImageFix"/>
<feBlend mode="normal" in="SourceGraphic" in2="BackgroundImageFix" result="shape"/>
<feGaussianBlur stdDeviation="2" result="effect1_foregroundBlur_2_13"/>
</filter>
<filter id="filter11_f_2_13" x="77.9854" y="73.9853" width="184.029" height="184.029" filterUnits="userSpaceOnUse" color-interpolation-filters="sRGB">
<feFlood flood-opacity="0" result="BackgroundImageFix"/>
<feBlend mode="normal" in="SourceGraphic" in2="BackgroundImageFix" result="shape"/>
<feGaussianBlur stdDeviation="2" result="effect1_foregroundBlur_2_13"/>
</filter>
<linearGradient id="paint0_linear_2_13" x1="58.4999" y1="277.5" x2="360.181" y2="214.456" gradientUnits="userSpaceOnUse">
<stop stop-color="#316FD2"/>
<stop offset="0.552083" stop-color="#426BC2"/>
<stop offset="1" stop-color="#4839B5"/>
</linearGradient>
<linearGradient id="paint1_linear_2_13" x1="25.5" y1="166" x2="323" y2="166" gradientUnits="userSpaceOnUse">
<stop stop-color="#393939"/>
<stop offset="0.27649" stop-color="#49454F" stop-opacity="0.5"/>
<stop offset="0.700589" stop-color="#3F3B44" stop-opacity="0.740395"/>
<stop offset="1" stop-color="#343038"/>
</linearGradient>
<linearGradient id="paint2_linear_2_13" x1="206.277" y1="205.787" x2="139.574" y2="122.702" gradientUnits="userSpaceOnUse">
<stop stop-color="#EFD99E"/>
<stop offset="0.208333" stop-color="#D29F5D"/>
<stop offset="0.369792" stop-color="#C86734"/>
<stop offset="0.71875" stop-color="#9D3374"/>
<stop offset="1" stop-color="#3932AB"/>
</linearGradient>
<linearGradient id="paint3_linear_2_13" x1="268" y1="58.5" x2="336" y2="87" gradientUnits="userSpaceOnUse">
<stop/>
<stop offset="0.911758" stop-opacity="0"/>
</linearGradient>
<linearGradient id="paint4_linear_2_13" x1="268" y1="165" x2="336" y2="193.5" gradientUnits="userSpaceOnUse">
<stop/>
<stop offset="0.911758" stop-opacity="0"/>
</linearGradient>
<linearGradient id="paint5_linear_2_13" x1="252.5" y1="82" x2="288" y2="53.5" gradientUnits="userSpaceOnUse">
<stop stop-color="#EFD99E"/>
<stop offset="0.208333" stop-color="#D29F5D"/>
<stop offset="0.369792" stop-color="#C86734"/>
<stop offset="0.71875" stop-color="#9D3374"/>
<stop offset="1" stop-color="#3932AB"/>
</linearGradient>
<linearGradient id="paint6_linear_2_13" x1="100.553" y1="229.319" x2="245.574" y2="112.894" gradientUnits="userSpaceOnUse">
<stop stop-color="#FFE399"/>
<stop offset="0.208333" stop-color="#E0A85E"/>
<stop offset="0.369792" stop-color="#D76A30"/>
<stop offset="0.71875" stop-color="#B0317F"/>
<stop offset="1" stop-color="#3D36BB"/>
</linearGradient>
<linearGradient id="paint7_linear_2_13" x1="100.553" y1="229.319" x2="245.574" y2="112.894" gradientUnits="userSpaceOnUse">
<stop stop-color="#FFE399"/>
<stop offset="0.208333" stop-color="#E0A85E"/>
<stop offset="0.369792" stop-color="#D76A30"/>
<stop offset="0.71875" stop-color="#B0317F"/>
<stop offset="1" stop-color="#3D36BB"/>
</linearGradient>
<linearGradient id="paint8_linear_2_13" x1="83.5" y1="122" x2="246.5" y2="230.5" gradientUnits="userSpaceOnUse">
<stop stop-color="white"/>
<stop offset="0.211314" stop-color="white" stop-opacity="0"/>
<stop offset="0.78987" stop-color="white" stop-opacity="0.0915453"/>
<stop offset="1" stop-color="white" stop-opacity="0.890625"/>
</linearGradient>
<linearGradient id="paint9_linear_2_13" x1="64.2778" y1="112.222" x2="263.5" y2="244.833" gradientUnits="userSpaceOnUse">
<stop stop-color="white"/>
<stop offset="0.189888" stop-color="white" stop-opacity="0"/>
<stop offset="0.812649" stop-color="white" stop-opacity="0.0915453"/>
<stop offset="1" stop-color="white" stop-opacity="0.890625"/>
</linearGradient>
<clipPath id="clip0_2_13">
<rect width="332" height="332" fill="white" transform="translate(4)"/>
</clipPath>
</defs>
</svg>
